<svg xmlns="http://www.w3.org/2000/svg">
  <defs>
    <symbol id="icon-user" viewBox="0 -960 960 960">
      <path d="M480-480q-66 0-113-47t-47-113q0-66 47-113t113-47q66 0 113 47t47 113q0 66-47 113t-113 47ZM160-160v-112q0-34 17.5-62.5T224-378q62-31 126-46.5T480-440q66 0 130 15.5T736-378q29 15 46.5 43.5T800-272v112H160Zm80-80h480v-32q0-11-5.5-20T700-306q-54-27-109-40.5T480-360q-56 0-111 13.5T260-306q-9 5-14.5 14t-5.5 20v32Zm240-320q33 0 56.5-23.5T560-640q0-33-23.5-56.5T480-720q-33 0-56.5 23.5T400-640q0 33 23.5 56.5T480-560Zm0-80Zm0 400Z"/>
    </symbol>

    <symbol id="icon-album" viewBox="0 -960 960 960">
      <path d="M480-300q75 0 127.5-52.5T660-480q0-75-52.5-127.5T480-660q-75 0-127.5 52.5T300-480q0 75 52.5 127.5T480-300Zm0-140q-17 0-28.5-11.5T440-480q0-17 11.5-28.5T480-520q17 0 28.5 11.5T520-480q0 17-11.5 28.5T480-440Zm0 360q-83 0-156-31.5T197-197q-54-54-85.5-127T80-480q0-83 31.5-156T197-763q54-54 127-85.5T480-880q83 0 156 31.5T763-763q54 54 85.5 127T880-480q0 83-31.5 156T763-197q-54 54-127 85.5T480-80Zm0-80q134 0 227-93t93-227q0-134-93-227t-227-93q-134 0-227 93t-93 227q0 134 93 227t227 93Zm0-320Z"/>
    </symbol>

    <symbol id="icon-artist" viewBox="0 -960 960 960">
      <path d="M192-680q-15-17-23.5-37t-8.5-43q0-50 35-85t85-35q50 0 85 35t35 85q0 23-8.5 43T368-680H192ZM400-80q-66 0-113-47t-47-113h-40l-40-400h240l-40 400h-40q0 33 23.5 56.5T400-160q33 0 56.5-23.5T480-240v-480q0-66 47-113t113-47q66 0 113 47t47 113v640h-80v-640q0-33-23.5-56.5T640-800q-33 0-56.5 23.5T560-720v480q0 66-47 113T400-80ZM272-320h16l24-240h-64l24 240Zm16-240h-40 64-24Z"/>
    </symbol>

    <symbol id="icon-genre" viewBox="0 -960 960 960">
      <path d="M400-120q-66 0-113-47t-47-113q0-66 47-113t113-47q23 0 42.5 5.5T480-418v-422h240v160H560v400q0 66-47 113t-113 47Z"/>
    </symbol>
  </defs>
</svg>
